<svg width="640" height="640" viewBox="0 0 640 640" fill="none" xmlns="http://www.w3.org/2000/svg">
  <rect width="640" height="640" rx="80" fill="#eef2ff"/>
  <path fill-rule="evenodd" clip-rule="evenodd" d="M320 170C259.148 170 210 219.148 210 280C210 340.852 259.148 390 320 390C380.852 390 430 340.852 430 280C430 219.148 380.852 170 320 170ZM240 280C240 238.392 276.392 202 318 202C359.608 202 396 238.392 396 280C396 321.608 359.608 358 318 358C276.392 358 240 321.608 240 280Z" fill="#2563EB"/>
  <path d="M200 482C200 415.641 255.641 360 322 360H318C384.359 360 440 415.641 440 482V500H200V482Z" fill="#8B5CF6"/>
  <path d="M174 516C174 472.588 206.588 440 250 440H390C433.412 440 466 472.588 466 516C466 559.412 433.412 592 390 592H250C206.588 592 174 559.412 174 516Z" fill="#4F46E5"/>
  <circle cx="160" cy="136" r="46" fill="#EFF6FF"/>
  <circle cx="480" cy="120" r="28" fill="#C7D2FE"/>
  <circle cx="520" cy="220" r="18" fill="#C7D2FE"/>
  <circle cx="130" cy="356" r="26" fill="#C7D2FE"/>
  <circle cx="518" cy="420" r="32" fill="#EFF6FF"/>
</svg>
